<svg width="77" height="77" viewBox="0 0 77 77" fill="none" xmlns="http://www.w3.org/2000/svg">
<g clip-path="url(#clip0_36_448)">
<path d="M66.9784 61.4867C65.0889 58.656 62.219 57.0922 59.5218 56.0756C58.1692 55.5658 56.8472 55.1913 55.6828 54.8729C54.5202 54.5564 53.5089 54.2896 52.8294 54.034C51.641 53.5925 50.3855 53.0204 49.5095 52.4052C49.072 52.1 48.735 51.7856 48.5395 51.5179C48.3419 51.2439 48.2882 51.0545 48.2861 50.8889C48.2861 49.7461 48.2861 48.3179 48.2861 46.4366C49.8064 44.7435 51.9908 42.1228 52.8883 37.9663C53.2018 37.8246 53.512 37.6652 53.8108 37.4563C54.5545 36.9435 55.1854 36.1988 55.7201 35.1851C56.2579 34.1676 56.7346 32.8664 57.2434 31.0865C57.501 30.1838 57.6199 29.3998 57.6199 28.7017C57.621 27.8981 57.4554 27.1989 57.1513 26.6321C56.6953 25.7728 55.9557 25.2949 55.357 25.0778C55.2908 25.0541 55.2329 25.0395 55.1689 25.021L55.2143 23.0414C55.2143 23.0414 55.3199 21.0123 55.238 19.9573C55.0179 17.0915 54.7882 14.2257 54.602 11.3568C54.5658 10.7984 54.513 10.2346 54.513 9.67408C54.5129 6.33556 44.8367 1 39.0007 1C33.1645 1 23.4883 6.33556 23.4883 9.67393C23.4883 10.9513 22.4066 22.5335 22.8182 22.5656C22.8192 22.5656 22.8337 24.8368 22.8337 25.0229C22.5771 25.1036 22.3052 25.2091 22.0157 25.386C21.5875 25.6507 21.1541 26.0644 20.8521 26.6321C20.548 27.1989 20.3816 27.8981 20.3826 28.7027C20.3837 29.4008 20.5026 30.1847 20.7601 31.0865C21.4406 33.457 22.055 34.9877 22.8504 36.1099C23.2476 36.6683 23.7004 37.1162 24.1928 37.4563C24.4917 37.6652 24.802 37.8245 25.1153 37.9663C26.0129 42.1228 28.1974 44.7435 29.7175 46.4366C29.7175 48.3179 29.7175 49.7461 29.7175 50.8889C29.7175 51.0295 29.6617 51.2324 29.4435 51.5219C29.1241 51.952 28.461 52.4733 27.674 52.915C26.889 53.3618 25.9862 53.7476 25.196 54.0268C24.2683 54.3557 22.7738 54.697 21.0994 55.1779C18.5832 55.9051 15.6088 56.9537 13.1887 59.0284C11.9807 60.0667 10.9196 61.3698 10.174 62.9894C9.42726 64.6079 8.9991 66.5306 9 68.782C9 69.3043 9.02286 69.8442 9.07038 70.4026C9.10467 70.7936 9.25356 71.112 9.42831 71.3747C9.76143 71.8629 10.203 72.227 10.7563 72.6002C11.7254 73.2415 13.0678 73.8682 14.7867 74.4834C19.931 76.3182 28.4478 77.9977 39.002 77.9998C47.5767 77.9998 54.8143 76.8871 59.9802 75.4889C62.5648 74.7877 64.628 74.0213 66.1194 73.255C66.8661 72.8682 67.4701 72.4876 67.9489 72.0698C68.1889 71.8588 68.3987 71.6374 68.5756 71.3748C68.7494 71.1121 68.8994 70.7937 68.9335 70.4027C68.9801 69.8443 69.0029 69.3065 69.0029 68.7853C69.0066 65.7859 68.236 63.3679 66.9784 61.4867ZM34.7645 9.61919H43.2369V13.4418H34.7645V9.61919ZM27.2622 36.9185L27.1443 36.2514L26.5073 36.0239C26.1018 35.8792 25.7926 35.7312 25.5227 35.544C25.1244 35.2627 24.7635 34.8789 24.3417 34.093C23.9248 33.3111 23.4832 32.1424 23.0003 30.4474C22.7883 29.7058 22.7128 29.1307 22.7128 28.7026C22.7137 28.2051 22.809 27.9145 22.9062 27.7313C23.0531 27.4645 23.233 27.3507 23.4626 27.2587C23.6467 27.1883 23.8401 27.1698 23.9177 27.1656L24.7999 27.2753L26.8983 31.494V21.9408C29.7486 20.7866 33.8245 19.2777 38.3751 19.2777C41.9276 19.2777 45.3995 20.1992 48.2696 21.1528L51.1034 22.488V31.494L53.2257 27.2257L54.0633 27.1656C54.1348 27.1636 54.5091 27.2008 54.7553 27.3641C54.8887 27.4489 54.9973 27.5483 55.0967 27.7313C55.195 27.9145 55.289 28.2051 55.2911 28.7014C55.2911 29.1306 55.2156 29.7057 55.0036 30.4472C54.3614 32.7091 53.7853 34.0256 53.2568 34.7558C52.992 35.1251 52.75 35.3555 52.4811 35.5438C52.2111 35.7309 51.9019 35.8789 51.4965 36.0237L50.8593 36.2513L50.7414 36.9184C49.9957 41.0925 47.8445 43.4413 46.2558 45.2108L45.957 45.5439V45.9906C45.957 48.1087 45.957 49.6527 45.957 50.8886C45.955 51.6561 46.2539 52.347 46.6623 52.8981C46.7016 52.9508 46.7502 52.9964 46.7917 53.0481L44.6808 57.4404H33.323L31.2038 53.0324C31.2339 52.9964 31.271 52.9673 31.299 52.9302C31.7219 52.3758 32.0468 51.6809 32.0468 50.8885C32.0468 49.6526 32.0468 48.1085 32.0468 45.9904V45.5425L31.7479 45.2105C30.1591 43.4414 28.0079 41.0926 27.2622 36.9185ZM50.5302 68.357L39.0017 74.703L27.4732 68.357L29.2304 64.22L24.4377 60.4813L29.5572 54.9824L39.0017 74.703L48.4463 54.9824L53.5657 60.4813L48.7731 64.2211L50.5302 68.357Z" fill="#6A7581"/>
</g>
<defs>
<clipPath id="clip0_36_448">
<rect width="77" height="77" fill="white"/>
</clipPath>
</defs>
</svg>
