<svg width="92" height="95" viewBox="0 0 92 95" fill="none" xmlns="http://www.w3.org/2000/svg">
<g filter="url(#filter0_d_36_455)">
<path d="M36.3747 7.1925C33.8337 7.80851 32.1012 8.925 27.0192 13.391C22.7457 17.164 21.8602 18.1265 20.7052 20.398L19.3577 23.0545L19.2422 33.0645C19.1652 38.57 19.2037 43.4595 19.3192 43.9215C19.6272 45.115 20.6282 45.423 21.7062 44.6915L22.6302 44.114V34.2965C22.6302 28.9065 22.7842 24.094 23.0152 23.555L23.4002 22.554H29.3677H35.3352V27.559V32.564H39.9552H44.5752V27.559V22.554H51.1202H57.6652V37.107C57.6652 47.9255 57.7807 51.7755 58.1272 52.122C58.7817 52.7765 59.8212 52.6995 60.5142 51.968C61.0532 51.4675 61.1302 49.504 61.1302 36.3755C61.1302 27.174 61.2842 21.399 61.4767 21.399C61.7077 21.399 63.5942 20.013 65.7117 18.319C69.2537 15.5085 69.6002 15.316 69.9852 15.9705C70.2162 16.471 70.3702 21.5145 70.3702 29.561C70.3702 44.037 70.6012 42.882 67.0207 47.0785C65.6732 48.657 65.3267 49.3115 65.5192 50.043C65.7887 51.121 66.7127 51.583 67.6367 51.044C68.8302 50.428 72.6417 45.4615 73.2577 43.729C74.1047 41.3035 74.1047 18.2035 73.2577 15.316C72.5262 12.929 70.6782 10.4265 68.5607 9.00201C65.5962 7 63.7097 6.769 50.1577 6.80751C43.3817 6.846 37.1832 7 36.3747 7.1925ZM40.7252 14.6615L36.2977 19.089H30.9077H25.5177L27.4042 17.4335C32.8712 12.775 35.2197 10.9655 36.2977 10.6575C36.9137 10.465 39.1852 10.2725 41.3027 10.2725L45.1527 10.234L40.7252 14.6615ZM64.8262 10.8115C68.0602 12.159 68.0987 12.1205 64.1332 15.316C62.1697 16.8945 60.1677 18.396 59.7057 18.627C59.1667 18.935 56.5872 19.089 52.2752 19.089H45.7302L50.5812 14.6615L55.4322 10.234H59.4362C62.0927 10.234 63.9407 10.4265 64.8262 10.8115Z" fill="black"/>
<path d="M12.0424 49.9664C11.6189 50.1975 11.1569 50.5825 11.0029 50.8134C10.8489 51.0445 10.6949 56.8965 10.6949 63.8265C10.6949 79.034 10.0019 77.6095 17.4324 77.6095C22.2449 77.6095 22.5529 77.571 23.3229 76.724C23.7849 76.2235 24.1699 75.569 24.1699 75.2225C24.1699 74.7605 26.3259 75.261 34.8729 77.648C42.8424 79.9195 46.1149 80.6895 47.8474 80.6895C50.0804 80.6895 50.6194 80.42 64.0174 73.6055C77.9929 66.483 80.4569 64.943 80.9574 62.864C81.7274 59.861 79.5329 56.704 76.3759 56.242C75.0284 56.011 73.2959 56.3575 67.4824 57.9745C60.4369 59.8995 60.2444 59.938 58.7814 59.3605C57.6649 58.8985 55.8554 58.7445 51.7359 58.7445H46.2304L43.6894 57.0505C39.5314 54.24 33.3714 52.623 26.9804 52.5844C24.4779 52.5844 24.1699 52.5075 24.1699 51.853C24.1699 51.4295 23.7079 50.7365 23.1689 50.313C22.2449 49.5814 21.6289 49.5044 17.4709 49.5044C14.7374 49.5044 12.5044 49.697 12.0424 49.9664ZM21.0899 63.557V74.5295H17.4324H13.7749V63.557V52.5844H17.4324H21.0899V63.557ZM32.2549 56.0494C36.2204 56.704 39.4159 57.8975 42.4574 59.938L45.2679 61.8245H51.0429C56.0479 61.8245 56.9334 61.9015 57.6649 62.5175C58.3194 63.0565 58.4734 63.48 58.3194 64.2115C57.8959 65.867 56.7409 66.0595 47.6934 66.0595C39.9164 66.0595 39.1849 66.1365 38.3764 66.791C37.6064 67.407 37.5294 67.6765 37.8759 68.254C38.2609 68.87 39.1079 68.947 47.4239 69.0625C55.7784 69.1395 56.7024 69.101 58.2424 68.408C60.1674 67.561 61.5149 65.713 61.5149 63.942V62.787L68.4064 60.9005C72.3719 59.8225 75.6059 59.1295 76.0294 59.2835C78.2239 59.9765 78.6089 62.2865 76.7609 63.48C76.2604 63.8265 69.8694 67.1375 62.5929 70.872C51.4279 76.5315 49.0409 77.6095 47.6549 77.6095C46.2304 77.6095 37.9529 75.4535 26.7879 72.181L24.1699 71.411V63.557V55.6645H26.9804C28.4819 55.6645 30.8689 55.857 32.2549 56.0494Z" fill="black"/>
</g>
<defs>
<filter id="filter0_d_36_455" x="-2" y="0" width="97" height="97" filterUnits="userSpaceOnUse" color-interpolation-filters="sRGB">
<feFlood flood-opacity="0" result="BackgroundImageFix"/>
<feColorMatrix in="SourceAlpha" type="matrix" values="0 0 0 0 0 0 0 0 0 0 0 0 0 0 0 0 0 0 127 0" result="hardAlpha"/>
<feOffset dy="4"/>
<feGaussianBlur stdDeviation="5"/>
<feComposite in2="hardAlpha" operator="out"/>
<feColorMatrix type="matrix" values="0 0 0 0 0 0 0 0 0 0 0 0 0 0 0 0 0 0 0.25 0"/>
<feBlend mode="normal" in2="BackgroundImageFix" result="effect1_dropShadow_36_455"/>
<feBlend mode="normal" in="SourceGraphic" in2="effect1_dropShadow_36_455" result="shape"/>
</filter>
</defs>
</svg>
