<svg width="77" height="77" viewBox="0 0 77 77" fill="none" xmlns="http://www.w3.org/2000/svg">
<path d="M72.1134 15.6531C72.1307 15.4485 72.139 15.2433 72.139 15.0386C72.139 9.40422 67.5551 4.82031 61.9207 4.82031C61.8049 4.82031 61.6924 4.82482 61.4303 4.83633L15.429 4.8331C15.2961 4.8267 15.1611 4.82031 15.0212 4.82031C9.39566 4.82031 4.81942 9.3952 4.81942 15.0252L4.83356 15.8488H4.81055L4.83995 60.5879L4.82777 62.1205C4.82777 67.6872 9.35603 72.2155 14.922 72.2155C15.0474 72.2155 15.4489 72.1975 15.4559 72.1975L61.2449 72.2039C61.4693 72.2307 61.7123 72.2391 61.963 72.2391C64.6561 72.2391 67.1901 71.1898 69.0974 69.2837C71.0054 67.3783 72.0559 64.8482 72.0559 62.1557L72.045 61.2522H72.114L72.1134 15.653V15.6531ZM15.1413 67.8251L14.9469 67.8098C11.7493 67.8098 9.22113 65.1883 9.19173 61.8462V25.0159H67.735L67.7696 61.4996L67.703 61.715C67.6628 61.8532 67.6428 61.9842 67.6428 62.1038C67.6428 65.1403 65.2701 67.6507 62.2399 67.8188L61.4266 67.8655V67.8259L15.1413 67.8251ZM67.7342 20.636H9.19616L9.16796 15.6781L9.23188 15.4582C9.27098 15.3213 9.29068 15.1852 9.29068 15.0636C9.29068 11.8877 11.902 9.2988 15.1694 9.28797L15.2032 9.28285L61.6872 9.28421L61.8874 9.29947C65.0703 9.29947 67.6599 11.8891 67.6599 15.0721C67.6599 15.1718 67.6747 15.2741 67.7092 15.4129L67.7341 15.4793V20.636H67.7342Z" fill="#6A7581"/>
<path d="M52.4618 35.4492C51.8691 35.4492 51.3103 35.6807 50.8889 36.1021L34.088 52.9036L26.0629 44.8791C25.646 44.4578 25.0891 44.2256 24.4957 44.2256C23.9023 44.2256 23.3435 44.4571 22.9228 44.8772C22.5033 45.2921 22.2705 45.8472 22.2686 46.4405C22.2673 47.0352 22.4994 47.5953 22.922 48.0192L32.5132 57.6109C32.932 58.029 33.4915 58.2593 34.088 58.2593C34.6839 58.2593 35.2433 58.0292 35.6621 57.6103L54.0283 39.2441C54.4478 38.8297 54.6806 38.2754 54.6825 37.6813C54.6838 37.0841 54.451 36.5227 54.0297 36.1033C53.6122 35.6813 53.0553 35.4492 52.4619 35.4492H52.4618Z" fill="#6A7581"/>
</svg>
