<svg width="77" height="77" viewBox="0 0 77 77" fill="none" xmlns="http://www.w3.org/2000/svg">
<path fill-rule="evenodd" clip-rule="evenodd" d="M41.7081 19.2493C45.252 19.2493 48.1247 16.3765 48.1247 12.8327C48.1247 9.28885 45.252 6.41602 41.7081 6.41602C38.1645 6.41602 35.2914 9.28885 35.2914 12.8327C35.2914 16.3765 38.1645 19.2493 41.7081 19.2493ZM35.4608 21.1922C36.5237 20.6608 37.7936 20.7604 38.7606 21.4511L41.9689 23.7428C42.9895 24.4719 43.4916 25.7289 43.2545 26.9605L39.8896 44.4251L54.0027 65.5947C54.9854 67.0689 54.5873 69.061 53.1127 70.044C51.6385 71.0267 49.6465 70.6282 48.6637 69.154L33.8207 46.8898L31.2043 42.965C30.7464 42.2781 30.5709 41.4411 30.7143 40.6278L32.6282 29.7826L26.9005 32.6464L25.0659 41.8148C24.7182 43.5525 23.0278 44.6789 21.2904 44.3315C19.5529 43.9837 18.4263 42.2932 18.7739 40.5559L20.9164 29.849C21.1106 28.8783 21.7421 28.0516 22.6275 27.6089L35.4608 21.1922ZM53.5269 41.5431L44.3046 38.4689L45.5289 32.1135L55.5562 35.4556C57.237 36.0161 58.1456 37.833 57.5852 39.5138C57.025 41.195 55.2081 42.1036 53.5269 41.5431ZM19.6618 65.8013L30.1464 47.1622L31.1513 48.6694L34.1396 53.1515L25.2544 68.9474C24.3857 70.4916 22.4296 71.0392 20.8852 70.1707C19.3409 69.3019 18.7931 67.3458 19.6618 65.8013Z" fill="#6A7581"/>
</svg>
