<svg width="14" height="5" viewBox="0 0 14 5" fill="none" xmlns="http://www.w3.org/2000/svg">
<path fill-rule="evenodd" clip-rule="evenodd" d="M2.13853 0C0.957593 0 0 0.756015 0 1.68926C0 2.28882 0.396595 2.81513 0.992183 3.11551L0.790705 3.86774C0.786985 3.8788 0.786458 3.89068 0.789183 3.90202C0.791908 3.91336 0.797776 3.9237 0.806112 3.93186C0.816532 3.94271 0.830714 3.94916 0.845745 3.94988C0.860775 3.95061 0.875511 3.94554 0.886922 3.93573L1.75347 3.35038C1.88099 3.36891 2.00967 3.37835 2.13853 3.37861C3.31957 3.37861 4.27716 2.6225 4.27716 1.68886C4.27716 0.75522 3.31957 0 2.13853 0Z" fill="#0D0F12"/>
<path d="M6.07767 3.09308V4.18396H5.30078V0.161356H5.84886L5.94468 0.416707C6.10958 0.251807 6.35966 0.0761719 6.76411 0.0761719C7.52499 0.0761719 7.8873 0.645519 7.88143 1.56604C7.88143 2.5291 7.32282 3.14645 6.52466 3.14645C6.37396 3.1485 6.22365 3.13056 6.07767 3.09308ZM6.07767 0.81032V2.55027C6.16067 2.56028 6.24416 2.56562 6.32775 2.56627C6.8811 2.56627 7.09401 2.17783 7.09401 1.56594C7.09401 1.0285 6.95028 0.703965 6.50866 0.703965C6.36503 0.703965 6.2054 0.746507 6.07767 0.81032Z" fill="#0D0F12"/>
<path d="M9.5771 1.29468H10.0187V1.19886C10.0187 0.8796 9.83782 0.730604 9.52393 0.730604C9.28448 0.730604 8.97585 0.800181 8.72577 0.922241L8.51296 0.400704C8.78958 0.209166 9.2153 0.0761719 9.59311 0.0761719C10.338 0.0761719 10.7423 0.469885 10.7423 1.22014V3.06654H10.1944L10.1148 2.82182C9.80085 3.05043 9.51359 3.14635 9.25287 3.14635C8.68352 3.14635 8.36426 2.80582 8.36426 2.2312C8.36396 1.61961 8.78958 1.29468 9.5771 1.29468ZM10.0187 2.32166V1.78948H9.66219C9.26311 1.78948 9.06093 1.93321 9.06093 2.22047C9.06093 2.43914 9.17276 2.5451 9.40147 2.5451C9.61438 2.5451 9.88573 2.43865 10.0187 2.32166Z" fill="#0D0F12"/>
<path d="M13.0902 2.76824C12.8188 3.49195 12.4943 4.01875 12.0207 4.31128L11.5418 3.86966C11.8185 3.63021 12.0153 3.39613 12.1857 3.08223L11.1533 0.267502L11.9249 0.0599606L12.5847 2.34272L13.2392 0.0488281L14.0001 0.261737L13.0902 2.76824Z" fill="#0D0F12"/>
</svg>
