<svg width="3" height="13" viewBox="0 0 3 13" fill="none" xmlns="http://www.w3.org/2000/svg">
<path d="M1.776 2.632C1.232 2.632 0.816 2.184 0.816 1.672C0.816 1.144 1.248 0.712 1.776 0.712C2.304 0.712 2.736 1.128 2.736 1.672C2.736 2.2 2.304 2.632 1.776 2.632ZM1.776 7.528C1.232 7.528 0.816 7.08 0.816 6.568C0.816 6.04 1.248 5.608 1.776 5.608C2.272 5.608 2.736 6.008 2.736 6.568C2.736 7.096 2.304 7.528 1.776 7.528ZM1.776 12.36C1.232 12.36 0.816 11.912 0.816 11.4C0.816 10.904 1.216 10.44 1.776 10.44C2.304 10.44 2.736 10.872 2.736 11.4C2.736 11.944 2.304 12.36 1.776 12.36Z" fill="black"/>
</svg>
