<svg width="14" height="5" viewBox="0 0 14 5" fill="none" xmlns="http://www.w3.org/2000/svg">
<path d="M13.431 1.1578L12.7596 2.68756L11.9997 1.1578H11.4155L12.4938 3.28014L12.0498 4.27122H12.6171L13.9997 1.1578H13.431ZM11.0921 3.52299H10.537V3.30218C10.3354 3.4795 10.075 3.57543 9.80655 3.57128C9.14223 3.57128 8.62278 3.03073 8.62278 2.34016C8.62278 1.64959 9.14223 1.10951 9.80655 1.10951C10.075 1.10536 10.3354 1.20129 10.537 1.37861V1.1578H11.0921V3.52299ZM10.6021 2.34016C10.6021 1.89431 10.2908 1.55583 9.87781 1.55583C9.46478 1.55583 9.15395 1.89431 9.15395 2.34016C9.15395 2.78601 9.46525 3.12496 9.87781 3.12496C10.2904 3.12496 10.6021 2.78648 10.6021 2.34204V2.34016ZM5.86426 4.27122H6.44325V3.32233C6.64132 3.48697 6.89177 3.57528 7.1493 3.57128C7.81408 3.57128 8.33352 3.03073 8.33352 2.34016C8.33352 1.64959 7.81408 1.10951 7.1493 1.10951C6.88097 1.10525 6.62068 1.2012 6.41933 1.37861V1.1578H5.86426V4.27122ZM7.07804 1.55583C7.49106 1.55583 7.80235 1.89431 7.80235 2.34016C7.80235 2.78601 7.49106 3.12496 7.07804 3.12496C6.66501 3.12496 6.35418 2.78647 6.35418 2.34016C6.35418 1.89384 6.66548 1.55583 7.07804 1.55583Z" fill="#0D0F12"/>
<path d="M4.82695 2.41348C4.82695 3.05357 4.57268 3.66745 4.12006 4.12006C3.66745 4.57268 3.05357 4.82695 2.41348 4.82695C1.77338 4.82695 1.15951 4.57268 0.70689 4.12006C0.254276 3.66745 0 3.05357 0 2.41348C0 1.77338 0.254276 1.15951 0.70689 0.70689C1.15951 0.254276 1.77338 0 2.41348 0C3.05357 0 3.66745 0.254276 4.12006 0.70689C4.57268 1.15951 4.82695 1.77338 4.82695 2.41348ZM2.81715 1.27894V2.4927L1.97327 1.27894H1.27753V3.54802H2.00843V2.33378L2.85231 3.54802H3.54803V1.27894H2.81715Z" fill="#0D0F12"/>
</svg>
